<svg width="81" height="30" viewBox="0 0 81 30" fill="none" xmlns="http://www.w3.org/2000/svg">
<path d="M32.5142 9.4H34.0442V20.56H38.9942V22H32.5142V9.4ZM39.8077 17.86C39.8077 17.02 39.9937 16.276 40.3657 15.628C40.7497 14.98 41.2657 14.47 41.9137 14.098C42.5617 13.726 43.2877 13.54 44.0917 13.54C44.9077 13.54 45.6337 13.726 46.2697 14.098C46.9177 14.47 47.4277 14.98 47.7997 15.628C48.1837 16.276 48.3757 17.02 48.3757 17.86C48.3757 18.688 48.1837 19.432 47.7997 20.092C47.4277 20.74 46.9177 21.25 46.2697 21.622C45.6337 21.994 44.9077 22.18 44.0917 22.18C43.2877 22.18 42.5617 21.994 41.9137 21.622C41.2657 21.25 40.7497 20.74 40.3657 20.092C39.9937 19.432 39.8077 18.688 39.8077 17.86ZM41.2657 17.86C41.2657 18.436 41.3857 18.946 41.6257 19.39C41.8777 19.834 42.2137 20.188 42.6337 20.452C43.0657 20.704 43.5517 20.83 44.0917 20.83C44.6317 20.83 45.1117 20.704 45.5317 20.452C45.9637 20.188 46.2997 19.834 46.5397 19.39C46.7917 18.946 46.9177 18.436 46.9177 17.86C46.9177 17.284 46.7917 16.774 46.5397 16.33C46.2997 15.874 45.9637 15.52 45.5317 15.268C45.1117 15.016 44.6317 14.89 44.0917 14.89C43.5517 14.89 43.0657 15.016 42.6337 15.268C42.2137 15.52 41.8777 15.874 41.6257 16.33C41.3857 16.774 41.2657 17.284 41.2657 17.86ZM56.5639 25.96V13.72H58.0039V25.96H56.5639ZM49.6339 17.86C49.6339 16.96 49.8199 16.192 50.1919 15.556C50.5639 14.908 51.0619 14.41 51.6859 14.062C52.3099 13.714 52.9939 13.54 53.7379 13.54C54.4339 13.54 55.0399 13.714 55.5559 14.062C56.0719 14.41 56.4739 14.908 56.7619 15.556C57.0619 16.192 57.2119 16.96 57.2119 17.86C57.2119 18.748 57.0619 19.516 56.7619 20.164C56.4739 20.812 56.0719 21.31 55.5559 21.658C55.0399 22.006 54.4339 22.18 53.7379 22.18C52.9939 22.18 52.3099 22.006 51.6859 21.658C51.0619 21.31 50.5639 20.812 50.1919 20.164C49.8199 19.516 49.6339 18.748 49.6339 17.86ZM51.0919 17.86C51.0919 18.496 51.2179 19.036 51.4699 19.48C51.7339 19.924 52.0819 20.26 52.5139 20.488C52.9459 20.716 53.4139 20.83 53.9179 20.83C54.3379 20.83 54.7519 20.716 55.1599 20.488C55.5679 20.26 55.9039 19.924 56.1679 19.48C56.4319 19.036 56.5639 18.496 56.5639 17.86C56.5639 17.224 56.4319 16.684 56.1679 16.24C55.9039 15.796 55.5679 15.46 55.1599 15.232C54.7519 15.004 54.3379 14.89 53.9179 14.89C53.4139 14.89 52.9459 15.004 52.5139 15.232C52.0819 15.46 51.7339 15.796 51.4699 16.24C51.2179 16.684 51.0919 17.224 51.0919 17.86ZM61.2675 19.444C61.2675 19.756 61.3395 20.026 61.4835 20.254C61.6395 20.482 61.8495 20.656 62.1135 20.776C62.3895 20.884 62.7015 20.938 63.0495 20.938C63.4935 20.938 63.8895 20.848 64.2375 20.668C64.5975 20.488 64.8795 20.236 65.0835 19.912C65.2995 19.576 65.4075 19.192 65.4075 18.76L65.6955 19.84C65.6955 20.368 65.5335 20.806 65.2095 21.154C64.8975 21.502 64.5075 21.76 64.0395 21.928C63.5835 22.096 63.1275 22.18 62.6715 22.18C62.1675 22.18 61.6935 22.078 61.2495 21.874C60.8175 21.658 60.4695 21.352 60.2055 20.956C59.9415 20.56 59.8095 20.08 59.8095 19.516C59.8095 18.712 60.0915 18.07 60.6555 17.59C61.2315 17.098 62.0295 16.852 63.0495 16.852C63.6495 16.852 64.1475 16.924 64.5435 17.068C64.9515 17.2 65.2755 17.356 65.5155 17.536C65.7555 17.704 65.9175 17.842 66.0015 17.95V18.796C65.5815 18.508 65.1495 18.304 64.7055 18.184C64.2615 18.052 63.7875 17.986 63.2835 17.986C62.8155 17.986 62.4315 18.046 62.1315 18.166C61.8435 18.286 61.6275 18.454 61.4835 18.67C61.3395 18.886 61.2675 19.144 61.2675 19.444ZM61.0515 15.628L60.3495 14.566C60.6615 14.338 61.0875 14.11 61.6275 13.882C62.1795 13.654 62.8395 13.54 63.6075 13.54C64.2555 13.54 64.8195 13.642 65.2995 13.846C65.7915 14.038 66.1695 14.32 66.4335 14.692C66.7095 15.064 66.8475 15.52 66.8475 16.06V22H65.4075V16.258C65.4075 15.97 65.3595 15.736 65.2635 15.556C65.1675 15.364 65.0295 15.214 64.8495 15.106C64.6815 14.998 64.4835 14.92 64.2555 14.872C64.0275 14.824 63.7875 14.8 63.5355 14.8C63.1275 14.8 62.7555 14.848 62.4195 14.944C62.0955 15.04 61.8195 15.154 61.5915 15.286C61.3635 15.418 61.1835 15.532 61.0515 15.628ZM69.9335 19.444C69.9335 19.756 70.0055 20.026 70.1495 20.254C70.3055 20.482 70.5155 20.656 70.7795 20.776C71.0555 20.884 71.3675 20.938 71.7155 20.938C72.1595 20.938 72.5555 20.848 72.9035 20.668C73.2635 20.488 73.5455 20.236 73.7495 19.912C73.9655 19.576 74.0735 19.192 74.0735 18.76L74.3615 19.84C74.3615 20.368 74.1995 20.806 73.8755 21.154C73.5635 21.502 73.1735 21.76 72.7055 21.928C72.2495 22.096 71.7935 22.18 71.3375 22.18C70.8335 22.18 70.3595 22.078 69.9155 21.874C69.4835 21.658 69.1355 21.352 68.8715 20.956C68.6075 20.56 68.4755 20.08 68.4755 19.516C68.4755 18.712 68.7575 18.07 69.3215 17.59C69.8975 17.098 70.6955 16.852 71.7155 16.852C72.3155 16.852 72.8135 16.924 73.2095 17.068C73.6175 17.2 73.9415 17.356 74.1815 17.536C74.4215 17.704 74.5835 17.842 74.6675 17.95V18.796C74.2475 18.508 73.8155 18.304 73.3715 18.184C72.9275 18.052 72.4535 17.986 71.9495 17.986C71.4815 17.986 71.0975 18.046 70.7975 18.166C70.5095 18.286 70.2935 18.454 70.1495 18.67C70.0055 18.886 69.9335 19.144 69.9335 19.444ZM69.7175 15.628L69.0155 14.566C69.3275 14.338 69.7535 14.11 70.2935 13.882C70.8455 13.654 71.5055 13.54 72.2735 13.54C72.9215 13.54 73.4855 13.642 73.9655 13.846C74.4575 14.038 74.8355 14.32 75.0995 14.692C75.3755 15.064 75.5135 15.52 75.5135 16.06V22H74.0735V16.258C74.0735 15.97 74.0255 15.736 73.9295 15.556C73.8335 15.364 73.6955 15.214 73.5155 15.106C73.3475 14.998 73.1495 14.92 72.9215 14.872C72.6935 14.824 72.4535 14.8 72.2015 14.8C71.7935 14.8 71.4215 14.848 71.0855 14.944C70.7615 15.04 70.4855 15.154 70.2575 15.286C70.0295 15.418 69.8495 15.532 69.7175 15.628ZM76.6916 13.72H80.8316V15.07H76.6916V13.72ZM78.0416 10.84H79.4816V22H78.0416V10.84Z" fill="black"/>
<path d="M23.9955 17.6088C23.8815 22.0263 22.589 23.9951 21.2192 25.5921C17.9492 29.4035 13.173 29.8538 11.9286 29.7998V29.8046C10.6826 29.8587 5.93354 29.4029 2.66458 25.5921C1.29479 23.9951 0.119768 22.0257 0.00521091 17.6088C-0.068084 14.7653 0.644997 12.1426 1.31442 10.2937C1.80631 8.93656 2.95731 5.7578 5.70506 3.14011C7.28931 1.63058 8.64551 0.72018 9.34099 0.462721C10.1597 0.160329 10.7948 0 11.6749 0C12.5386 0 13.1286 0.160329 13.9451 0.462721C14.6406 0.719572 16.5695 1.62572 18.1538 3.13525C20.901 5.75355 22.052 8.9317 22.5439 10.2888C23.2133 12.1384 24.0694 14.7653 23.9955 17.6088Z" fill="#FFDD0F"/>
<path d="M14.4031 12.8356C14.7076 12.7475 15.3758 12.7276 16.035 12.9439C16.7592 13.1819 17.1952 13.6221 17.5878 14.0055C18.7011 15.0923 19.1276 16.3472 19.3228 16.9423C19.5681 17.6905 19.8442 18.5322 19.7353 19.6457C19.691 20.0999 19.5039 21.7557 18.1183 23.0227C17.1939 23.868 15.3884 24.8569 14.1365 24.2798C11.2183 22.9338 12.1842 13.4758 14.4031 12.8356Z" fill="#481D13"/>
<path d="M9.60755 12.8356C9.30303 12.7475 8.63481 12.7276 7.97563 12.9439C7.25138 13.1819 6.81539 13.6221 6.42277 14.0055C5.30952 15.0923 4.88301 16.3472 4.68783 16.9423C4.4425 17.6905 4.16645 18.5322 4.27534 19.6457C4.31961 20.0999 4.50666 21.7557 5.89235 23.0227C6.81674 23.868 8.62216 24.8569 9.87412 24.2798C12.7923 22.9338 11.8264 13.4758 9.60755 12.8356Z" fill="#481D13"/>
</svg>
